<svg width="238" height="33" viewBox="0 0 238 33" fill="none" xmlns="http://www.w3.org/2000/svg">
<path d="M10.16 29.44C8.8 29.44 7.52 29.2 6.32 28.72C5.12 28.2133 4.05333 27.44 3.12 26.4C2.21333 25.36 1.50667 24.04 1 22.44C0.493333 20.8133 0.24 18.8933 0.24 16.68C0.24 14.7333 0.44 13.0267 0.84 11.56C1.24 10.0933 1.77333 8.86667 2.44 7.88C3.13333 6.86667 3.90667 6.05333 4.76 5.44C5.64 4.82666 6.54667 4.38666 7.48 4.12C8.44 3.85333 9.38667 3.72 10.32 3.72C12.2133 3.72 13.8133 4.14667 15.12 5C16.4533 5.85333 17.48 7.05333 18.2 8.6L15.36 10.72L15.04 10.92L14.84 10.6C14.8667 10.3867 14.84 10.1867 14.76 10C14.7067 9.81333 14.5733 9.53333 14.36 9.16C13.7733 8.44 13.16 7.96 12.52 7.72C11.9067 7.48 11.2533 7.36 10.56 7.36C9.78667 7.36 9.05333 7.56 8.36 7.96C7.66667 8.33333 7.04 8.90667 6.48 9.68C5.92 10.4533 5.48 11.4133 5.16 12.56C4.86667 13.68 4.72 14.9867 4.72 16.48C4.72 17.92 4.85333 19.2133 5.12 20.36C5.41333 21.48 5.8 22.44 6.28 23.24C6.78667 24.04 7.37333 24.6533 8.04 25.08C8.73333 25.5067 9.48 25.72 10.28 25.72C10.92 25.72 11.5067 25.6267 12.04 25.44C12.6 25.2533 13.1067 24.96 13.56 24.56C14.0133 24.16 14.4267 23.6267 14.8 22.96L17.92 25.28C16.9867 26.7733 15.8933 27.84 14.64 28.48C13.3867 29.12 11.8933 29.44 10.16 29.44ZM29.08 29.48C27.0267 29.48 25.3067 28.9733 23.92 27.96C22.56 26.9467 21.52 25.48 20.8 23.56C20.1067 21.64 19.76 19.3067 19.76 16.56C19.76 13.8667 20.1067 11.5733 20.8 9.68C21.52 7.76 22.56 6.29333 23.92 5.28C25.3067 4.24 27.0267 3.72 29.08 3.72C31.1067 3.72 32.8 4.24 34.16 5.28C35.5467 6.29333 36.5867 7.76 37.28 9.68C38 11.5733 38.36 13.8667 38.36 16.56C38.36 19.3067 38 21.6533 37.28 23.6C36.5867 25.52 35.5467 26.9867 34.16 28C32.8 28.9867 31.1067 29.48 29.08 29.48ZM29.08 25.8C30.0933 25.8 30.9467 25.4667 31.64 24.8C32.36 24.1067 32.9067 23.08 33.28 21.72C33.68 20.3333 33.88 18.6 33.88 16.52C33.88 14.5733 33.68 12.92 33.28 11.56C32.9067 10.2 32.36 9.17333 31.64 8.48C30.9467 7.76 30.0933 7.4 29.08 7.4C28.0667 7.4 27.2 7.76 26.48 8.48C25.76 9.17333 25.2 10.2 24.8 11.56C24.4267 12.92 24.24 14.5733 24.24 16.52C24.24 18.6 24.4267 20.3333 24.8 21.72C25.2 23.08 25.76 24.1067 26.48 24.8C27.2 25.4667 28.0667 25.8 29.08 25.8ZM40.68 29V4.08H47.12C48.5867 4.08 49.8133 4.21333 50.8 4.48C51.8133 4.74667 52.6667 5.13333 53.36 5.64C54.08 6.14667 54.72 6.77333 55.28 7.52C55.84 8.26667 56.3067 9.12 56.68 10.08C57.08 11.0133 57.3867 12.0267 57.6 13.12C57.8133 14.2133 57.92 15.4133 57.92 16.72C57.8667 18.6133 57.6133 20.32 57.16 21.84C56.7333 23.3333 56.0667 24.6133 55.16 25.68C54.28 26.7467 53.1333 27.5733 51.72 28.16C50.3067 28.72 48.6133 29 46.64 29H40.68ZM45.08 25.48H46.52C48.2267 25.48 49.5867 25.12 50.6 24.4C51.64 23.6533 52.3867 22.6267 52.84 21.32C53.2933 20.0133 53.5067 18.4933 53.48 16.76C53.48 14.92 53.28 13.32 52.88 11.96C52.5067 10.6 51.84 9.54667 50.88 8.8C49.92 8.05333 48.6133 7.68 46.96 7.68H45.08V25.48ZM61.04 29V4.08H77.28V7.76H65.44V14.16H75.16V17.88H65.44V25.32H77.16V29H61.04ZM80.8 29V4.08H88.68C90.7333 4.08 92.4 4.38667 93.68 5C94.9867 5.58667 95.9467 6.44 96.56 7.56C97.1733 8.65333 97.48 9.93333 97.48 11.4C97.48 12.3067 97.28 13.2133 96.88 14.12C96.5067 15.0267 95.9733 15.84 95.28 16.56C94.5867 17.28 93.76 17.8267 92.8 18.2L98.16 29H93.4L88.36 18.64H85.36V29H80.8ZM85.36 14.88H89C90.28 14.88 91.24 14.5867 91.88 14C92.52 13.3867 92.84 12.56 92.84 11.52C92.84 10.8533 92.6933 10.2667 92.4 9.76C92.1333 9.22666 91.7067 8.8 91.12 8.48C90.56 8.16 89.8533 8 89 8H85.36V14.88ZM113.56 32.4C111.693 32.4 110.067 32.1867 108.68 31.76C107.32 31.36 106.267 30.6267 105.52 29.56C104.8 28.52 104.453 27.0533 104.48 25.16L104.6 21.52C104.6 20.5333 104.48 19.7867 104.24 19.28C104.027 18.7467 103.707 18.4 103.28 18.24C102.88 18.0533 102.373 17.96 101.76 17.96H100.44V14.44H101.72C102.387 14.44 102.933 14.3333 103.36 14.12C103.813 13.9067 104.147 13.56 104.36 13.08C104.573 12.6 104.68 11.9333 104.68 11.08L104.6 7.64C104.6 6.09333 104.92 4.8 105.56 3.76C106.2 2.69333 107.12 1.89333 108.32 1.36C109.52 0.826665 110.947 0.559999 112.6 0.559999H115.52V4.12H111.88C110.867 4.12 110.107 4.38666 109.6 4.92C109.12 5.42667 108.88 6.2 108.88 7.24L108.96 10.6C108.96 11.4533 108.84 12.24 108.6 12.96C108.36 13.6533 108 14.28 107.52 14.84C107.067 15.3733 106.507 15.8267 105.84 16.2C106.48 16.4933 107.013 16.92 107.44 17.48C107.893 18.04 108.24 18.7067 108.48 19.48C108.747 20.2533 108.88 21.1333 108.88 22.12L108.76 25.12C108.76 26.0267 108.907 26.76 109.2 27.32C109.493 27.88 109.947 28.2933 110.56 28.56C111.2 28.8 112.013 28.92 113 28.92H115.48V32.4H113.56ZM125 30.72L120.84 28.92L133.16 2.32L137.24 4.4L125 30.72ZM142.92 32.4H141V28.92H143.48C144.493 28.92 145.307 28.8 145.92 28.56C146.533 28.2933 146.987 27.88 147.28 27.32C147.573 26.76 147.72 26.0267 147.72 25.12L147.6 22.12C147.6 21.1333 147.72 20.2533 147.96 19.48C148.227 18.7067 148.573 18.04 149 17.48C149.453 16.92 150 16.4933 150.64 16.2C149.973 15.8267 149.4 15.3733 148.92 14.84C148.467 14.28 148.12 13.6533 147.88 12.96C147.64 12.24 147.52 11.4533 147.52 10.6L147.6 7.24C147.6 6.2 147.347 5.42667 146.84 4.92C146.36 4.38666 145.613 4.12 144.6 4.12H140.96V0.559999H143.88C145.56 0.559999 146.987 0.826665 148.16 1.36C149.36 1.89333 150.28 2.69333 150.92 3.76C151.56 4.8 151.88 6.09333 151.88 7.64L151.8 11.08C151.8 11.9333 151.907 12.6 152.12 13.08C152.333 13.56 152.667 13.9067 153.12 14.12C153.573 14.3333 154.12 14.44 154.76 14.44H156.04V17.96H154.72C154.133 17.96 153.627 18.0533 153.2 18.24C152.773 18.4 152.44 18.7467 152.2 19.28C151.987 19.7867 151.88 20.5333 151.88 21.52L152 25.16C152.027 27.0533 151.667 28.52 150.92 29.56C150.2 30.6267 149.147 31.36 147.76 31.76C146.4 32.1867 144.787 32.4 142.92 32.4ZM160.48 4.08H165.2L173.64 20.48L173.4 4.08H177.44H177.8V4.44C177.667 4.6 177.573 4.77333 177.52 4.96C177.493 5.14667 177.48 5.46667 177.48 5.92V29H173.28L164.56 11.52V29H160.48V4.08ZM181.04 29V4.08H197.28V7.76H185.44V14.16H195.16V17.88H185.44V25.32H197.16V29H181.04ZM202.68 29L199.4 4.08H203.32L205 19.72L208.2 6.04H210.6L213.8 19.68L215.12 4.08H218.8L215.56 29H212.72L209.2 13.64L205.6 29H202.68ZM228.68 29.44C227.027 29.44 225.467 29.2 224 28.72C222.56 28.2133 221.36 27.4533 220.4 26.44L222.6 22.72L222.76 22.4L223.12 22.6C223.173 22.7867 223.24 22.9867 223.32 23.2C223.427 23.4133 223.64 23.6667 223.96 23.96C224.627 24.4667 225.36 24.88 226.16 25.2C226.987 25.4933 227.88 25.6533 228.84 25.68C229.453 25.68 230.013 25.6133 230.52 25.48C231.053 25.3467 231.507 25.1467 231.88 24.88C232.253 24.6133 232.547 24.28 232.76 23.88C232.973 23.4533 233.08 22.9733 233.08 22.44C233.08 22.12 233.04 21.8133 232.96 21.52C232.88 21.2267 232.733 20.9467 232.52 20.68C232.333 20.3867 232.053 20.1067 231.68 19.84C231.307 19.5467 230.84 19.24 230.28 18.92C229.72 18.5733 229.013 18.2133 228.16 17.84C226.453 17.0933 225.093 16.3333 224.08 15.56C223.093 14.7867 222.387 13.96 221.96 13.08C221.533 12.2 221.32 11.2 221.32 10.08C221.32 8.85333 221.653 7.76 222.32 6.8C223.013 5.84 223.96 5.08 225.16 4.52C226.36 3.96 227.733 3.68 229.28 3.68C230.32 3.68 231.293 3.8 232.2 4.04C233.107 4.28 233.947 4.64 234.72 5.12C235.493 5.57333 236.2 6.16 236.84 6.88L234.2 9.92L233.96 10.2L233.64 9.96C233.613 9.74667 233.56 9.54667 233.48 9.36C233.427 9.14667 233.253 8.88 232.96 8.56C232.453 8.08 231.907 7.76 231.32 7.6C230.76 7.44 230.093 7.36 229.32 7.36C228.76 7.36 228.267 7.42667 227.84 7.56C227.413 7.69333 227.04 7.88 226.72 8.12C226.427 8.36 226.187 8.64 226 8.96C225.84 9.25333 225.76 9.56 225.76 9.88C225.76 10.2 225.8 10.5067 225.88 10.8C225.96 11.0667 226.093 11.3333 226.28 11.6C226.493 11.8667 226.787 12.1467 227.16 12.44C227.56 12.7067 228.067 13 228.68 13.32C229.293 13.64 230.053 14 230.96 14.4C232.213 14.9867 233.267 15.56 234.12 16.12C234.973 16.6533 235.64 17.2267 236.12 17.84C236.627 18.4267 236.987 19.08 237.2 19.8C237.413 20.4933 237.52 21.28 237.52 22.16C237.52 23.36 237.213 24.52 236.6 25.64C235.987 26.76 235.027 27.68 233.72 28.4C232.413 29.0933 230.733 29.44 228.68 29.44Z" fill="#D36D34"/>
</svg>
