<svg width="57" height="33" viewBox="0 0 57 33" fill="none" xmlns="http://www.w3.org/2000/svg">
<path d="M13.56 32.4C11.6933 32.4 10.0667 32.1867 8.68 31.76C7.32 31.36 6.26667 30.6267 5.52 29.56C4.8 28.52 4.45333 27.0533 4.48 25.16L4.6 21.52C4.6 20.5333 4.48 19.7867 4.24 19.28C4.02667 18.7467 3.70667 18.4 3.28 18.24C2.88 18.0533 2.37333 17.96 1.76 17.96H0.44V14.44H1.72C2.38667 14.44 2.93333 14.3333 3.36 14.12C3.81333 13.9067 4.14667 13.56 4.36 13.08C4.57333 12.6 4.68 11.9333 4.68 11.08L4.6 7.64C4.6 6.09333 4.92 4.8 5.56 3.76C6.2 2.69333 7.12 1.89333 8.32 1.36C9.52 0.826665 10.9467 0.559999 12.6 0.559999H15.52V4.12H11.88C10.8667 4.12 10.1067 4.38666 9.6 4.92C9.12 5.42667 8.88 6.2 8.88 7.24L8.96 10.6C8.96 11.4533 8.84 12.24 8.6 12.96C8.36 13.6533 8 14.28 7.52 14.84C7.06667 15.3733 6.50667 15.8267 5.84 16.2C6.48 16.4933 7.01333 16.92 7.44 17.48C7.89333 18.04 8.24 18.7067 8.48 19.48C8.74667 20.2533 8.88 21.1333 8.88 22.12L8.76 25.12C8.76 26.0267 8.90667 26.76 9.2 27.32C9.49333 27.88 9.94667 28.2933 10.56 28.56C11.2 28.8 12.0133 28.92 13 28.92H15.48V32.4H13.56ZM25 30.72L20.84 28.92L33.16 2.32L37.24 4.4L25 30.72ZM42.92 32.4H41V28.92H43.48C44.4933 28.92 45.3067 28.8 45.92 28.56C46.5333 28.2933 46.9867 27.88 47.28 27.32C47.5733 26.76 47.72 26.0267 47.72 25.12L47.6 22.12C47.6 21.1333 47.72 20.2533 47.96 19.48C48.2267 18.7067 48.5733 18.04 49 17.48C49.4533 16.92 50 16.4933 50.64 16.2C49.9733 15.8267 49.4 15.3733 48.92 14.84C48.4667 14.28 48.12 13.6533 47.88 12.96C47.64 12.24 47.52 11.4533 47.52 10.6L47.6 7.24C47.6 6.2 47.3467 5.42667 46.84 4.92C46.36 4.38666 45.6133 4.12 44.6 4.12H40.96V0.559999H43.88C45.56 0.559999 46.9867 0.826665 48.16 1.36C49.36 1.89333 50.28 2.69333 50.92 3.76C51.56 4.8 51.88 6.09333 51.88 7.64L51.8 11.08C51.8 11.9333 51.9067 12.6 52.12 13.08C52.3333 13.56 52.6667 13.9067 53.12 14.12C53.5733 14.3333 54.12 14.44 54.76 14.44H56.04V17.96H54.72C54.1333 17.96 53.6267 18.0533 53.2 18.24C52.7733 18.4 52.44 18.7467 52.2 19.28C51.9867 19.7867 51.88 20.5333 51.88 21.52L52 25.16C52.0267 27.0533 51.6667 28.52 50.92 29.56C50.2 30.6267 49.1467 31.36 47.76 31.76C46.4 32.1867 44.7867 32.4 42.92 32.4Z" fill="#D36D34"/>
</svg>
